<svg xmlns="http://www.w3.org/2000/svg" version="1.1" xmlns:xlink="http://www.w3.org/1999/xlink" xmlns:svgjs="http://svgjs.dev/svgjs" width="1000" height="113" viewBox="0 0 1000 113"><g transform="matrix(1,0,0,1,-0.6060606060606233,-0.4551503194265152)"><svg viewBox="0 0 396 45" data-background-color="#353c45" preserveAspectRatio="xMidYMid meet" height="113" width="1000" xmlns="http://www.w3.org/2000/svg" xmlns:xlink="http://www.w3.org/1999/xlink"><g id="tight-bounds" transform="matrix(1,0,0,1,0.2400000000000091,0.18125455198401141)"><svg viewBox="0 0 395.52 44.637490896032" height="44.637490896032" width="395.52"><g><svg viewBox="0 0 630.095054793956 71.1111" height="44.637490896032" width="395.52"><g><svg viewBox="0 0 630.095054793956 71.1111" height="71.1111" width="630.095054793956"><g id="textblocktransform"><svg viewBox="0 0 630.095054793956 71.1111" height="71.1111" width="630.095054793956" id="textblock"><g><svg viewBox="0 0 630.095054793956 71.1111" height="71.1111" width="630.095054793956"><g><svg><g></g><g></g></svg></g><g><svg><g><svg></svg></g><g></g></svg></g><g id="text-0"><svg viewBox="0 0 630.095054793956 71.1111" height="71.1111" width="630.095054793956"><g transform="matrix(1,0,0,1,0,13.955549999999995)"><svg width="113.85" viewBox="2.25 -36.5 113.84 42.45" height="42.45" data-palette-color="#ffffff"><path d="M15.1-4.5L14.6-4.5 14.6-31.5 15.1-31.5 15.1-18.25 34.3-18.25 34.3-31.5 34.8-31.5 34.8-4.5 34.3-4.5 34.3-17.75 15.1-17.75 15.1-4.5ZM11 0L18.75 0Q19.7 0 20.13-0.43 20.55-0.85 20.55-1.8L20.55-1.8 20.55-12.9 28.9-12.9 28.9-1.8Q28.9-0.85 29.33-0.43 29.75 0 30.7 0L30.7 0 38.45 0Q39.4 0 39.83-0.43 40.25-0.85 40.25-1.8L40.25-1.8 40.25-34.2Q40.25-35.15 39.83-35.58 39.4-36 38.45-36L38.45-36 30.7-36Q29.75-36 29.33-35.58 28.9-35.15 28.9-34.2L28.9-34.2 28.9-23.35 20.55-23.35 20.55-34.2Q20.55-35.15 20.13-35.58 19.7-36 18.75-36L18.75-36 11-36Q10.05-36 9.63-35.58 9.2-35.15 9.2-34.2L9.2-34.2 9.2-1.8Q9.2-0.85 9.63-0.43 10.05 0 11 0L11 0ZM20.35 0.05L20.35 0.05 13.85 5.45Q13.65 5.65 13.23 5.8 12.8 5.95 12.3 5.95L12.3 5.95 4.55 5.95Q3.35 5.95 2.8 5.4 2.25 4.85 2.25 3.65L2.25 3.65 2.25-28.75Q2.25-29.4 2.43-29.85 2.6-30.3 2.95-30.6L2.95-30.6 9.4-36.05Q9.65-36.25 10.08-36.38 10.5-36.5 11-36.5L11-36.5 18.75-36.5Q19.95-36.5 20.5-35.95 21.05-35.4 21.05-34.2L21.05-34.2 21.05-23.85 21.95-23.85 21.95-28.75Q21.95-29.4 22.13-29.85 22.3-30.3 22.65-30.6L22.65-30.6 29.1-36.05Q29.35-36.25 29.78-36.38 30.2-36.5 30.7-36.5L30.7-36.5 38.45-36.5Q39.65-36.5 40.2-35.95 40.75-35.4 40.75-34.2L40.75-34.2 40.75-1.8Q40.75-1.15 40.58-0.7 40.4-0.25 40.05 0.05L40.05 0.05 33.55 5.45Q33.35 5.65 32.93 5.8 32.5 5.95 32 5.95L32 5.95 24.25 5.95Q23.05 5.95 22.5 5.4 21.95 4.85 21.95 3.65L21.95 3.65 21.95-6.95 21.05-6.95 21.05-1.8Q21.05-1.15 20.88-0.7 20.7-0.25 20.35 0.05ZM69.65 5.95L69.65 5.95 57.45 5.95Q50.9 5.95 47.77 2.55 44.65-0.85 44.65-6.25L44.65-6.25 44.65-20.3Q44.65-23.05 45.45-25.08 46.25-27.1 47.8-28.45L47.8-28.45 54.3-33.9Q55.85-35.2 58.25-35.85 60.65-36.5 63.9-36.5L63.9-36.5 76.1-36.5Q77.3-36.5 77.85-35.95 78.4-35.4 78.4-34.2L78.4-34.2 78.4-28.15Q78.4-27.5 78.22-27.05 78.05-26.6 77.7-26.3L77.7-26.3 71.2-20.9Q71-20.7 70.57-20.55 70.15-20.4 69.65-20.4L69.65-20.4 63.5-20.4 63.5-11.95Q63.5-10.9 64.15-10.48 64.8-10.05 66.05-10.05L66.05-10.05 76.1-10.05Q77.3-10.05 77.85-9.5 78.4-8.95 78.4-7.75L78.4-7.75 78.4-1.8Q78.4-1.15 78.22-0.7 78.05-0.25 77.7 0.05L77.7 0.05 71.2 5.45Q71 5.65 70.57 5.8 70.15 5.95 69.65 5.95ZM63.9 0L76.1 0Q77.05 0 77.47-0.43 77.9-0.85 77.9-1.8L77.9-1.8 77.9-7.75Q77.9-8.7 77.47-9.13 77.05-9.55 76.1-9.55L76.1-9.55 66.05-9.55Q64.5-9.55 63.75-10.13 63-10.7 63-11.95L63-11.95 63-23.85Q63-25.1 63.75-25.73 64.5-26.35 66.05-26.35L66.05-26.35 76.1-26.35Q77.05-26.35 77.47-26.78 77.9-27.2 77.9-28.15L77.9-28.15 77.9-34.2Q77.9-35.15 77.47-35.58 77.05-36 76.1-36L76.1-36 63.9-36Q57.65-36 54.62-33.48 51.6-30.95 51.6-25.75L51.6-25.75 51.6-10.2Q51.6-5 54.62-2.5 57.65 0 63.9 0L63.9 0ZM65-5L73.35-5 73.35-4.5 65-4.5Q60.15-4.5 58.57-6 57-7.5 57-10.95L57-10.95 57-24.95Q57-28.5 58.6-30 60.2-31.5 65-31.5L65-31.5 73.35-31.5 73.35-31 65-31Q60.6-31 59.05-29.63 57.5-28.25 57.5-24.95L57.5-24.95 57.5-10.95Q57.5-7.7 59-6.35 60.5-5 65-5L65-5ZM98.8 5.95L83 5.95Q81.8 5.95 81.25 5.4 80.69 4.85 80.69 3.65L80.69 3.65 80.69-2.2Q80.69-2.85 80.87-3.3 81.05-3.75 81.39-4.05L81.39-4.05 86.39-8.25Q83.75-9.05 82.22-10.98 80.69-12.9 80.69-16.5L80.69-16.5 80.69-21.75Q80.69-24 81.44-25.75 82.19-27.5 83.59-28.7L83.59-28.7 90.09-34.15Q91.44-35.25 93.44-35.88 95.44-36.5 98-36.5L98-36.5 112-36.5Q113.19-36.5 113.75-35.95 114.3-35.4 114.3-34.2L114.3-34.2 114.3-28.25Q114.3-27.6 114.12-27.15 113.94-26.7 113.59-26.4L113.59-26.4 109.09-22.65Q112.25-21.95 114.17-20.03 116.09-18.1 116.09-14.05L116.09-14.05 116.09-8.8Q116.09-6.55 115.34-4.8 114.59-3.05 113.15-1.85L113.15-1.85 106.69 3.55Q105.3 4.7 103.3 5.33 101.3 5.95 98.8 5.95L98.8 5.95ZM89.44 0L105.25 0Q110.05 0 112.82-2.27 115.59-4.55 115.59-8.8L115.59-8.8 115.59-14.05Q115.59-18.25 113.44-20.05 111.3-21.85 107.8-22.35L107.8-22.35 100.34-23.35Q99.69-23.4 99.34-23.85 99-24.3 99-24.95L99-24.95Q99-25.6 99.34-26.03 99.69-26.45 100.34-26.45L100.34-26.45 112-26.45Q112.94-26.45 113.37-26.88 113.8-27.3 113.8-28.25L113.8-28.25 113.8-34.2Q113.8-35.15 113.37-35.58 112.94-36 112-36L112-36 98-36Q93.14-36 90.39-33.73 87.64-31.45 87.64-27.2L87.64-27.2 87.64-21.95Q87.64-17.75 89.77-15.95 91.89-14.15 95.39-13.65L95.39-13.65 102.89-12.6Q103.55-12.55 103.87-12.15 104.19-11.75 104.19-10.9L104.19-10.9Q104.19-10.3 103.87-9.88 103.55-9.45 102.89-9.45L102.89-9.45 89.44-9.45Q88.5-9.45 88.07-9.03 87.64-8.6 87.64-7.65L87.64-7.65 87.64-1.8Q87.64-0.85 88.07-0.43 88.5 0 89.44 0L89.44 0ZM98.19-31.5L109.3-31.5 109.3-31 98.19-31Q96.09-31 94.84-29.85 93.59-28.7 93.59-26.95L93.59-26.95 93.59-22.85Q93.59-21.1 94.3-20.4 95-19.7 96.14-19.5L96.14-19.5 106.69-17.35Q108.19-17.05 109.17-16.05 110.14-15.05 110.14-12.45L110.14-12.45 110.14-9.55Q110.14-7.35 108.64-5.93 107.14-4.5 104.59-4.5L104.59-4.5 92.14-4.5 92.14-5 104.59-5Q106.89-5 108.27-6.28 109.64-7.55 109.64-9.55L109.64-9.55 109.64-12.45Q109.64-14.8 108.82-15.68 108-16.55 106.59-16.85L106.59-16.85 96.05-19Q94.75-19.25 93.92-20.03 93.09-20.8 93.09-22.85L93.09-22.85 93.09-26.95Q93.09-28.95 94.5-30.23 95.89-31.5 98.19-31.5L98.19-31.5Z" opacity="1" transform="matrix(1,0,0,1,0,0)" fill="#ffffff" class="undefined-lv-0"></path></svg></g><g><svg xmlns="http://www.w3.org/2000/svg" xmlns:xlink="http://www.w3.org/1999/xlink" version="1.1" x="130.6389" y="0" viewBox="0 9.786 100.00034525290006 80.42699999999999" enable-background="new 0 0 100 100" xml:space="preserve" width="88.41725479395602" height="71.1111" class="icon-z$-0" data-fill-palette-color="accent" id="z$-0"><path d="M49.942 52.994c13.552-0.488 27.103-0.977 40.653-1.465-2.527-4.177-3.159-7.831-7.989-8.461-7.229-0.94-14.458-1.883-21.688-2.826-14.023-1.827-28.05-3.654-42.075-5.48C20.101 36.792 39.724 53.361 49.942 52.994z" fill="#31c48d" data-fill-palette-color="accent"></path><path d="M0 9.786c4.391 7.257 26.615 23.072 32.953 23.886 17.33 2.231 34.657 4.46 51.986 6.688-3.393-5.607-4.18-9.35-10.312-10.959-8.904-2.341-17.812-4.683-26.717-7.023C31.94 18.182 15.97 13.984 0 9.786z" fill="#31c48d" data-fill-palette-color="accent"></path><path d="M63.108 66.207c10.413-2.219 20.826-4.439 31.241-6.66-2.028-3.346-2.034-5.359-5.827-5.189-6.158 0.273-12.314 0.549-18.471 0.822-11.343 0.506-22.686 1.014-34.028 1.518C37.298 58.064 54.94 67.947 63.108 66.207z" fill="#31c48d" data-fill-palette-color="accent"></path><path d="M87.682 90.213c5.725-3.719 7.262-7.721 10.519-13.807 3.651-6.824 1.257-7.844-2.821-14.596-0.417-0.688-5.842 0.232-6.453 0.904-0.745 0.818-0.248 5.455-0.294 6.496C88.315 76.211 87.998 83.213 87.682 90.213z" fill="#31c48d" data-fill-palette-color="accent"></path><path d="M86.35 63.447c-3.795 0.809-8.604 0.191-9.572 4.229-1.373 5.736-2.746 11.475-4.12 17.211C81.904 82.678 86.028 71.582 86.35 63.447z" fill="#31c48d" data-fill-palette-color="accent"></path><path d="M74.666 66.121c-9.148 1.953-8.956 4.611-12.879 13.18C68.007 78.711 73.811 71.941 74.666 66.121z" fill="#31c48d" data-fill-palette-color="accent"></path></svg></g><g transform="matrix(1,0,0,1,235.84505479395602,13.205549999999992)"><svg width="394.25000000000006" viewBox="2.25 -37.25 394.23 43.95" height="43.95000000000001" data-palette-color="#ffffff"><path d="M37.5-2.1L31 3.3Q29.45 4.6 27.05 5.28 24.65 5.95 21.4 5.95L21.4 5.95 4.55 5.95Q3.35 5.95 2.8 5.4 2.25 4.85 2.25 3.65L2.25 3.65 2.25-28.75Q2.25-29.4 2.43-29.85 2.6-30.3 2.95-30.6L2.95-30.6 9.4-36.05Q9.65-36.25 10.08-36.38 10.5-36.5 11-36.5L11-36.5 27.85-36.5Q34.4-36.5 37.52-33.85 40.65-31.2 40.65-25.8L40.65-25.8 40.65-10.2Q40.65-7.5 39.85-5.48 39.05-3.45 37.5-2.1L37.5-2.1ZM11 0L27.85 0Q34.1 0 37.13-2.5 40.15-5 40.15-10.2L40.15-10.2 40.15-25.8Q40.15-31 37.13-33.5 34.1-36 27.85-36L27.85-36 11-36Q10.05-36 9.63-35.58 9.2-35.15 9.2-34.2L9.2-34.2 9.2-1.8Q9.2-0.85 9.63-0.43 10.05 0 11 0L11 0ZM26.75-4.5L14.65-4.5 14.65-31.5 26.75-31.5Q29.3-31.5 30.88-30.95 32.45-30.4 33.3-29.48 34.15-28.55 34.45-27.28 34.75-26 34.75-24.55L34.75-24.55 34.75-11.3Q34.75-9.85 34.48-8.6 34.2-7.35 33.35-6.45 32.5-5.55 30.9-5.03 29.3-4.5 26.75-4.5L26.75-4.5ZM26.75-31L26.75-31 15.15-31 15.15-5 26.75-5Q29.15-5 30.63-5.48 32.1-5.95 32.9-6.78 33.7-7.6 33.98-8.78 34.25-9.95 34.25-11.3L34.25-11.3 34.25-24.55Q34.25-25.9 33.95-27.1 33.65-28.3 32.85-29.15 32.05-30 30.58-30.5 29.1-31 26.75-31ZM20.55-9.45L20.55-26.45 26.5-26.45Q27.7-26.45 28.28-25.88 28.85-25.3 28.85-24.05L28.85-24.05 28.85-11.9Q28.85-10.65 28.28-10.05 27.7-9.45 26.5-9.45L26.5-9.45 20.55-9.45ZM21.9-9.95L21.9-18.6Q21.9-19.25 21.7-19.7 21.5-20.15 21.05-20.35L21.05-20.35 21.05-9.95 21.9-9.95ZM70.05 5.95L70.05 5.95 46.85 5.95Q45.65 5.95 45.1 5.4 44.55 4.85 44.55 3.65L44.55 3.65 44.55-28.75Q44.55-29.4 44.72-29.85 44.9-30.3 45.25-30.6L45.25-30.6 51.7-36.05Q51.95-36.25 52.37-36.38 52.8-36.5 53.3-36.5L53.3-36.5 76.5-36.5Q77.7-36.5 78.25-35.95 78.8-35.4 78.8-34.2L78.8-34.2 78.8-28.35Q78.8-27.7 78.62-27.25 78.45-26.8 78.1-26.5L78.1-26.5 73.8-22.95Q74.3-22.7 74.52-22.2 74.75-21.7 74.75-20.9L74.75-20.9 74.75-15.55Q74.75-14.9 74.57-14.45 74.4-14 74.05-13.7L74.05-13.7 69.6-9.95 76.5-9.95Q77.7-9.95 78.25-9.4 78.8-8.85 78.8-7.65L78.8-7.65 78.8-1.8Q78.8-1.15 78.62-0.7 78.45-0.25 78.1 0.05L78.1 0.05 71.6 5.45Q71.4 5.65 70.97 5.8 70.55 5.95 70.05 5.95ZM53.3 0L76.5 0Q77.45 0 77.87-0.43 78.3-0.85 78.3-1.8L78.3-1.8 78.3-7.65Q78.3-8.6 77.87-9.03 77.45-9.45 76.5-9.45L76.5-9.45 62.7-9.45 62.7-13.75 72.45-13.75Q73.4-13.75 73.82-14.18 74.25-14.6 74.25-15.55L74.25-15.55 74.25-20.9Q74.25-21.85 73.82-22.28 73.4-22.7 72.45-22.7L72.45-22.7 62.7-22.7 62.7-26.55 76.5-26.55Q77.45-26.55 77.87-26.98 78.3-27.4 78.3-28.35L78.3-28.35 78.3-34.2Q78.3-35.15 77.87-35.58 77.45-36 76.5-36L76.5-36 53.3-36Q52.35-36 51.92-35.58 51.5-35.15 51.5-34.2L51.5-34.2 51.5-1.8Q51.5-0.85 51.92-0.43 52.35 0 53.3 0L53.3 0ZM57.45-5L73.8-5 73.8-4.5 56.95-4.5 56.95-31.5 73.8-31.5 73.8-31 57.45-31 57.45-18.45 69.75-18.45 69.75-17.95 57.45-17.95 57.45-5ZM104.05 5.95L91.05 5.95Q89.9 5.95 89.2 5.53 88.5 5.1 88.05 4L88.05 4 83.15-8.25Q82.7-9.4 82.37-10.23 82.05-11.05 81.84-11.83 81.65-12.6 81.57-13.48 81.5-14.35 81.5-15.55L81.5-15.55 81.5-28.75Q81.5-29.4 81.67-29.85 81.84-30.3 82.2-30.6L82.2-30.6 88.65-36.05Q88.9-36.25 89.32-36.38 89.75-36.5 90.25-36.5L90.25-36.5 98.2-36.5Q99.4-36.5 100.02-35.93 100.65-35.35 100.65-34.2L100.65-34.2 100.65-20.4Q100.65-19.9 100.75-19.45 100.84-19 101-18.5L101-18.5 101.15-18.15 101.15-28.75Q101.15-29.4 101.32-29.85 101.5-30.3 101.84-30.6L101.84-30.6 108.3-36.05Q108.55-36.25 108.97-36.38 109.4-36.5 109.9-36.5L109.9-36.5 117.75-36.5Q119-36.5 119.52-35.95 120.05-35.4 120.05-34.2L120.05-34.2 120.05-21Q120.05-19.8 119.97-18.93 119.9-18.05 119.7-17.28 119.5-16.5 119.17-15.68 118.84-14.85 118.4-13.7L118.4-13.7 113.5-1.45Q113.34-1 113.09-0.65 112.84-0.3 112.59-0.1L112.59-0.1 106.15 5.25Q105.75 5.6 105.22 5.78 104.7 5.95 104.05 5.95L104.05 5.95ZM97.5 0L110.5 0Q111.45 0 112.07-0.35 112.7-0.7 113.05-1.65L113.05-1.65 117.95-13.9Q118.4-15 118.7-15.83 119-16.65 119.2-17.4 119.4-18.15 119.47-18.98 119.55-19.8 119.55-21L119.55-21 119.55-34.2Q119.55-35.15 119.12-35.58 118.7-36 117.75-36L117.75-36 109.9-36Q108.95-36 108.52-35.58 108.09-35.15 108.09-34.2L108.09-34.2 108.09-20.45Q108.09-19.95 108-19.45 107.9-18.95 107.7-18.4L107.7-18.4 105.34-11.35Q105.2-10.85 105-10.68 104.8-10.5 104.4-10.5L104.4-10.5 103.84-10.5Q103.45-10.5 103.25-10.68 103.05-10.85 102.9-11.35L102.9-11.35 100.55-18.35Q100.34-18.9 100.25-19.4 100.15-19.9 100.15-20.4L100.15-20.4 100.15-34.2Q100.15-35.15 99.65-35.58 99.15-36 98.2-36L98.2-36 90.25-36Q89.3-36 88.87-35.58 88.45-35.15 88.45-34.2L88.45-34.2 88.45-21Q88.45-19.8 88.52-18.98 88.59-18.15 88.8-17.4 89-16.65 89.3-15.83 89.59-15 90.05-13.9L90.05-13.9 94.95-1.65Q95.3-0.7 95.92-0.35 96.55 0 97.5 0L97.5 0ZM94.09-20.7L94.09-31.5 94.59-31.5 94.59-20.7Q94.59-19.4 94.8-18.23 95-17.05 95.4-16.05L95.4-16.05 98.7-8.05Q99.2-6.75 99.82-5.88 100.45-5 101.84-5L101.84-5 106.25-5Q107.65-5 108.27-5.88 108.9-6.75 109.4-8.05L109.4-8.05 112.7-16.05Q113.09-17.05 113.3-18.23 113.5-19.4 113.5-20.7L113.5-20.7 113.5-31.5 114-31.5 114-20.7Q114-19.3 113.82-18.13 113.65-16.95 113.2-15.85L113.2-15.85 109.9-7.85Q109.3-6.4 108.55-5.45 107.8-4.5 106.25-4.5L106.25-4.5 101.84-4.5Q100.3-4.5 99.55-5.45 98.8-6.4 98.2-7.85L98.2-7.85 94.9-15.85Q94.45-16.95 94.27-18.13 94.09-19.3 94.09-20.7L94.09-20.7ZM149.24 5.95L149.24 5.95 126.04 5.95Q124.84 5.95 124.29 5.4 123.74 4.85 123.74 3.65L123.74 3.65 123.74-28.75Q123.74-29.4 123.92-29.85 124.09-30.3 124.44-30.6L124.44-30.6 130.89-36.05Q131.14-36.25 131.57-36.38 131.99-36.5 132.49-36.5L132.49-36.5 155.69-36.5Q156.89-36.5 157.44-35.95 157.99-35.4 157.99-34.2L157.99-34.2 157.99-28.35Q157.99-27.7 157.82-27.25 157.64-26.8 157.29-26.5L157.29-26.5 152.99-22.95Q153.49-22.7 153.72-22.2 153.94-21.7 153.94-20.9L153.94-20.9 153.94-15.55Q153.94-14.9 153.77-14.45 153.59-14 153.24-13.7L153.24-13.7 148.79-9.95 155.69-9.95Q156.89-9.95 157.44-9.4 157.99-8.85 157.99-7.65L157.99-7.65 157.99-1.8Q157.99-1.15 157.82-0.7 157.64-0.25 157.29 0.05L157.29 0.05 150.79 5.45Q150.59 5.65 150.17 5.8 149.74 5.95 149.24 5.95ZM132.49 0L155.69 0Q156.64 0 157.07-0.43 157.49-0.85 157.49-1.8L157.49-1.8 157.49-7.65Q157.49-8.6 157.07-9.03 156.64-9.45 155.69-9.45L155.69-9.45 141.89-9.45 141.89-13.75 151.64-13.75Q152.59-13.75 153.02-14.18 153.44-14.6 153.44-15.55L153.44-15.55 153.44-20.9Q153.44-21.85 153.02-22.28 152.59-22.7 151.64-22.7L151.64-22.7 141.89-22.7 141.89-26.55 155.69-26.55Q156.64-26.55 157.07-26.98 157.49-27.4 157.49-28.35L157.49-28.35 157.49-34.2Q157.49-35.15 157.07-35.58 156.64-36 155.69-36L155.69-36 132.49-36Q131.54-36 131.12-35.58 130.69-35.15 130.69-34.2L130.69-34.2 130.69-1.8Q130.69-0.85 131.12-0.43 131.54 0 132.49 0L132.49 0ZM136.64-5L152.99-5 152.99-4.5 136.14-4.5 136.14-31.5 152.99-31.5 152.99-31 136.64-31 136.64-18.45 148.94-18.45 148.94-17.95 136.64-17.95 136.64-5ZM189.19 5.95L189.19 5.95 163.74 5.95Q162.54 5.95 161.99 5.4 161.44 4.85 161.44 3.65L161.44 3.65 161.44-28.75Q161.44-29.4 161.62-29.85 161.79-30.3 162.14-30.6L162.14-30.6 168.59-36.05Q168.84-36.25 169.26-36.38 169.69-36.5 170.19-36.5L170.19-36.5 177.94-36.5Q179.14-36.5 179.69-35.95 180.24-35.4 180.24-34.2L180.24-34.2 180.24-13.85 180.34-13.95 186.79-19.4Q187.04-19.6 187.47-19.73 187.89-19.85 188.39-19.85L188.39-19.85 195.64-19.85Q196.84-19.85 197.39-19.3 197.94-18.75 197.94-17.55L197.94-17.55 197.94-1.8Q197.94-1.15 197.76-0.7 197.59-0.25 197.24 0.05L197.24 0.05 190.74 5.45Q190.54 5.65 190.12 5.8 189.69 5.95 189.19 5.95ZM170.19 0L195.64 0Q196.59 0 197.01-0.43 197.44-0.85 197.44-1.8L197.44-1.8 197.44-17.55Q197.44-18.5 197.01-18.93 196.59-19.35 195.64-19.35L195.64-19.35 188.39-19.35Q187.44-19.35 187.01-18.93 186.59-18.5 186.59-17.55L186.59-17.55 186.59-9.45 179.74-9.45 179.74-34.2Q179.74-35.15 179.31-35.58 178.89-36 177.94-36L177.94-36 170.19-36Q169.24-36 168.81-35.58 168.39-35.15 168.39-34.2L168.39-34.2 168.39-1.8Q168.39-0.85 168.81-0.43 169.24 0 170.19 0L170.19 0ZM192.24-4.5L173.84-4.5 173.84-31.5 174.34-31.5 174.34-5 191.74-5 191.74-14.85 192.24-14.85 192.24-4.5ZM236.14-1.85L229.69 3.55Q227.94 5.05 224.79 5.88 221.64 6.7 216.69 6.7L216.69 6.7Q211.79 6.7 208.66 5.68 205.54 4.65 203.76 2.95 201.99 1.25 201.31-0.95 200.64-3.15 200.64-5.5L200.64-5.5 200.64-21.05Q200.64-23.35 201.29-25.33 201.94-27.3 203.64-28.7L203.64-28.7 210.14-34.1Q211.89-35.6 215.01-36.43 218.14-37.25 223.14-37.25L223.14-37.25Q228.04-37.25 231.16-36.45 234.29-35.65 236.06-34.23 237.84-32.8 238.49-30.83 239.14-28.85 239.14-26.5L239.14-26.5 239.14-9.45Q239.14-7.15 238.49-5.2 237.84-3.25 236.14-1.85L236.14-1.85ZM238.64-9.45L238.64-9.45 238.64-26.5Q238.64-28.8 237.96-30.68 237.29-32.55 235.56-33.9 233.84-35.25 230.81-36 227.79-36.75 223.14-36.75L223.14-36.75Q218.49-36.75 215.44-36 212.39-35.25 210.66-33.9 208.94-32.55 208.26-30.68 207.59-28.8 207.59-26.5L207.59-26.5 207.59-9.45Q207.59-7.15 208.26-5.28 208.94-3.4 210.66-2.08 212.39-0.75 215.44 0 218.49 0.75 223.14 0.75L223.14 0.75Q227.79 0.75 230.81 0 233.84-0.75 235.56-2.08 237.29-3.4 237.96-5.28 238.64-7.15 238.64-9.45ZM233.19-25.35L233.19-10.6Q233.19-7.6 231.04-5.73 228.89-3.85 223.04-3.85L223.04-3.85Q217.19-3.85 215.09-5.73 212.99-7.6 212.99-10.6L212.99-10.6 212.99-25.35Q212.99-28.35 215.09-30.23 217.19-32.1 223.04-32.1L223.04-32.1Q228.89-32.1 231.04-30.23 233.19-28.35 233.19-25.35L233.19-25.35ZM213.49-25.35L213.49-10.6Q213.49-7.8 215.49-6.08 217.49-4.35 223.04-4.35L223.04-4.35Q228.59-4.35 230.64-6.08 232.69-7.8 232.69-10.6L232.69-10.6 232.69-25.35Q232.69-28.15 230.64-29.88 228.59-31.6 223.04-31.6L223.04-31.6Q217.49-31.6 215.49-29.88 213.49-28.15 213.49-25.35L213.49-25.35ZM218.94-11.25L218.94-11.25 218.94-24.7Q218.94-25.65 219.69-26.33 220.44-27 223.14-27L223.14-27Q225.84-27 226.59-26.33 227.34-25.65 227.34-24.7L227.34-24.7 227.34-11.25Q227.34-10.25 226.59-9.58 225.84-8.9 223.14-8.9L223.14-8.9Q220.44-8.9 219.69-9.58 218.94-10.25 218.94-11.25ZM219.44-20.7L219.44-11.25Q219.44-10.75 219.64-10.38 219.84-10 220.39-9.75L220.39-9.75 220.39-19.25Q220.39-19.75 220.19-20.13 219.99-20.5 219.44-20.7L219.44-20.7ZM253.09 5.95L253.09 5.95 245.34 5.95Q244.13 5.95 243.59 5.4 243.03 4.85 243.03 3.65L243.03 3.65 243.03-28.75Q243.03-29.4 243.21-29.85 243.38-30.3 243.73-30.6L243.73-30.6 250.19-36.05Q250.44-36.25 250.86-36.38 251.28-36.5 251.78-36.5L251.78-36.5 267.08-36.5Q270.63-36.5 273.03-35.75 275.44-35 276.83-33.65 278.24-32.3 278.81-30.4 279.38-28.5 279.38-26.25L279.38-26.25 279.38-19.85Q279.38-17.45 278.71-15.48 278.03-13.5 276.38-12.1L276.38-12.1 269.88-6.7Q268.63-5.65 266.66-4.98 264.69-4.3 261.83-4.2L261.83-4.2 261.83-1.8Q261.83-1.15 261.66-0.7 261.49-0.25 261.13 0.05L261.13 0.05 254.63 5.45Q254.44 5.65 254.01 5.8 253.59 5.95 253.09 5.95ZM251.78 0L259.53 0Q260.49 0 260.91-0.43 261.33-0.85 261.33-1.8L261.33-1.8 261.33-10.1 267.08-10.1Q273.88-10.1 276.38-12.8 278.88-15.5 278.88-19.85L278.88-19.85 278.88-26.25Q278.88-30.6 276.38-33.3 273.88-36 267.08-36L267.08-36 251.78-36Q250.84-36 250.41-35.58 249.98-35.15 249.98-34.2L249.98-34.2 249.98-1.8Q249.98-0.85 250.41-0.43 250.84 0 251.78 0L251.78 0ZM266.38-14.35L266.38-14.35 256.08-14.35 256.08-4.5 255.59-4.5 255.59-31.5 266.38-31.5Q268.74-31.5 270.21-30.98 271.69-30.45 272.49-29.55 273.28-28.65 273.58-27.4 273.88-26.15 273.88-24.7L273.88-24.7 273.88-21Q273.88-19.55 273.58-18.32 273.28-17.1 272.49-16.23 271.69-15.35 270.21-14.85 268.74-14.35 266.38-14.35ZM256.08-31L256.08-14.85 266.38-14.85Q268.58-14.85 269.96-15.3 271.33-15.75 272.08-16.57 272.83-17.4 273.11-18.53 273.38-19.65 273.38-21L273.38-21 273.38-24.7Q273.38-26.05 273.11-27.2 272.83-28.35 272.08-29.2 271.33-30.05 269.96-30.53 268.58-31 266.38-31L266.38-31 256.08-31ZM261.24-19.1L261.24-26.65 265.74-26.65Q267.19-26.65 267.63-25.9 268.08-25.15 268.08-24.2L268.08-24.2 268.08-21.55Q268.08-20.6 267.63-19.85 267.19-19.1 265.74-19.1L265.74-19.1 261.24-19.1ZM307.63 5.95L307.63 5.95 284.43 5.95Q283.23 5.95 282.68 5.4 282.13 4.85 282.13 3.65L282.13 3.65 282.13-28.75Q282.13-29.4 282.31-29.85 282.48-30.3 282.83-30.6L282.83-30.6 289.28-36.05Q289.53-36.25 289.96-36.38 290.38-36.5 290.88-36.5L290.88-36.5 314.08-36.5Q315.28-36.5 315.83-35.95 316.38-35.4 316.38-34.2L316.38-34.2 316.38-28.35Q316.38-27.7 316.21-27.25 316.03-26.8 315.68-26.5L315.68-26.5 311.38-22.95Q311.88-22.7 312.11-22.2 312.33-21.7 312.33-20.9L312.33-20.9 312.33-15.55Q312.33-14.9 312.16-14.45 311.98-14 311.63-13.7L311.63-13.7 307.18-9.95 314.08-9.95Q315.28-9.95 315.83-9.4 316.38-8.85 316.38-7.65L316.38-7.65 316.38-1.8Q316.38-1.15 316.21-0.7 316.03-0.25 315.68 0.05L315.68 0.05 309.18 5.45Q308.98 5.65 308.56 5.8 308.13 5.95 307.63 5.95ZM290.88 0L314.08 0Q315.03 0 315.46-0.43 315.88-0.85 315.88-1.8L315.88-1.8 315.88-7.65Q315.88-8.6 315.46-9.03 315.03-9.45 314.08-9.45L314.08-9.45 300.28-9.45 300.28-13.75 310.03-13.75Q310.98-13.75 311.41-14.18 311.83-14.6 311.83-15.55L311.83-15.55 311.83-20.9Q311.83-21.85 311.41-22.28 310.98-22.7 310.03-22.7L310.03-22.7 300.28-22.7 300.28-26.55 314.08-26.55Q315.03-26.55 315.46-26.98 315.88-27.4 315.88-28.35L315.88-28.35 315.88-34.2Q315.88-35.15 315.46-35.58 315.03-36 314.08-36L314.08-36 290.88-36Q289.93-36 289.51-35.58 289.08-35.15 289.08-34.2L289.08-34.2 289.08-1.8Q289.08-0.85 289.51-0.43 289.93 0 290.88 0L290.88 0ZM295.03-5L311.38-5 311.38-4.5 294.53-4.5 294.53-31.5 311.38-31.5 311.38-31 295.03-31 295.03-18.45 307.33-18.45 307.33-17.95 295.03-17.95 295.03-5ZM343.58-31L343.58-31 332.68-31 332.68-16.55 343.58-16.55Q346.68-16.55 347.73-18.05 348.78-19.55 348.78-22.3L348.78-22.3 348.78-25.8Q348.78-28.1 347.5-29.55 346.23-31 343.58-31ZM338.08-20.6L338.08-27 341.83-27Q343.13-27 343.58-26.33 344.03-25.65 344.03-24.65L344.03-24.65 344.03-22.95Q344.03-21.95 343.58-21.28 343.13-20.6 341.83-20.6L341.83-20.6 338.08-20.6ZM332.68-16.1L332.68-4.5 332.18-4.5 332.18-31.5 343.58-31.5Q346.48-31.5 347.88-29.88 349.28-28.25 349.28-25.8L349.28-25.8 349.28-22.35Q349.28-20.05 348.68-18.57 348.08-17.1 346.28-16.55L346.28-16.55 346.83-16.55Q349.88-16.55 351.38-15.18 352.88-13.8 352.88-11.2L352.88-11.2 352.88-4.5 352.38-4.5 352.38-11.2Q352.38-13.65 351.03-14.88 349.68-16.1 346.83-16.1L346.83-16.1 332.68-16.1ZM328.58 0L336.28 0Q337.23 0 337.65-0.43 338.08-0.85 338.08-1.8L338.08-1.8 338.08-11.6 345.08-11.6Q346.13-11.6 346.56-11.08 346.98-10.55 346.98-9.45L346.98-9.45 346.98-1.8Q346.98-0.85 347.4-0.43 347.83 0 348.78 0L348.78 0 356.53 0Q357.48 0 357.9-0.43 358.33-0.85 358.33-1.8L358.33-1.8 358.33-12.4Q358.33-15.55 356.65-17.45 354.98-19.35 352.28-19.65L352.28-19.65Q353.83-20.3 354.45-21.78 355.08-23.25 355.08-25.35L355.08-25.35 355.08-27.65Q355.08-31.35 352.95-33.68 350.83-36 345.23-36L345.23-36 328.58-36Q327.63-36 327.2-35.58 326.78-35.15 326.78-34.2L326.78-34.2 326.78-1.8Q326.78-0.85 327.2-0.43 327.63 0 328.58 0L328.58 0ZM337.88 0.05L337.88 0.05 331.38 5.45Q331.18 5.65 330.75 5.8 330.33 5.95 329.83 5.95L329.83 5.95 322.13 5.95Q320.93 5.95 320.38 5.4 319.83 4.85 319.83 3.65L319.83 3.65 319.83-28.75Q319.83-29.4 320-29.85 320.18-30.3 320.53-30.6L320.53-30.6 326.98-36.05Q327.23-36.25 327.65-36.38 328.08-36.5 328.58-36.5L328.58-36.5 345.23-36.5Q351.18-36.5 353.38-34.02 355.58-31.55 355.58-27.65L355.58-27.65 355.58-25.35Q355.58-23.5 355.13-22.13 354.68-20.75 353.68-19.9L353.68-19.9 353.63-19.9Q355.98-19.25 357.4-17.3 358.83-15.35 358.83-12.4L358.83-12.4 358.83-1.8Q358.83-1.15 358.65-0.7 358.48-0.25 358.13 0.05L358.13 0.05 351.63 5.45Q351.43 5.65 351 5.8 350.58 5.95 350.08 5.95L350.08 5.95 342.33 5.95Q341.13 5.95 340.58 5.4 340.03 4.85 340.03 3.65L340.03 3.65 340.03-4Q340.03-4.8 339.73-5.23 339.43-5.65 338.63-5.65L338.63-5.65 338.58-5.65 338.58-1.8Q338.58-1.15 338.4-0.7 338.23-0.25 337.88 0.05ZM379.18 5.95L363.38 5.95Q362.18 5.95 361.63 5.4 361.08 4.85 361.08 3.65L361.08 3.65 361.08-2.2Q361.08-2.85 361.25-3.3 361.43-3.75 361.78-4.05L361.78-4.05 366.78-8.25Q364.13-9.05 362.6-10.98 361.08-12.9 361.08-16.5L361.08-16.5 361.08-21.75Q361.08-24 361.83-25.75 362.58-27.5 363.98-28.7L363.98-28.7 370.48-34.15Q371.83-35.25 373.83-35.88 375.83-36.5 378.38-36.5L378.38-36.5 392.38-36.5Q393.58-36.5 394.13-35.95 394.68-35.4 394.68-34.2L394.68-34.2 394.68-28.25Q394.68-27.6 394.5-27.15 394.33-26.7 393.98-26.4L393.98-26.4 389.48-22.65Q392.63-21.95 394.55-20.03 396.48-18.1 396.48-14.05L396.48-14.05 396.48-8.8Q396.48-6.55 395.73-4.8 394.98-3.05 393.53-1.85L393.53-1.85 387.08 3.55Q385.68 4.7 383.68 5.33 381.68 5.95 379.18 5.95L379.18 5.95ZM369.83 0L385.63 0Q390.43 0 393.2-2.27 395.98-4.55 395.98-8.8L395.98-8.8 395.98-14.05Q395.98-18.25 393.83-20.05 391.68-21.85 388.18-22.35L388.18-22.35 380.73-23.35Q380.08-23.4 379.73-23.85 379.38-24.3 379.38-24.95L379.38-24.95Q379.38-25.6 379.73-26.03 380.08-26.45 380.73-26.45L380.73-26.45 392.38-26.45Q393.33-26.45 393.75-26.88 394.18-27.3 394.18-28.25L394.18-28.25 394.18-34.2Q394.18-35.15 393.75-35.58 393.33-36 392.38-36L392.38-36 378.38-36Q373.53-36 370.78-33.73 368.03-31.45 368.03-27.2L368.03-27.2 368.03-21.95Q368.03-17.75 370.15-15.95 372.28-14.15 375.78-13.65L375.78-13.65 383.28-12.6Q383.93-12.55 384.25-12.15 384.58-11.75 384.58-10.9L384.58-10.9Q384.58-10.3 384.25-9.88 383.93-9.45 383.28-9.45L383.28-9.45 369.83-9.45Q368.88-9.45 368.45-9.03 368.03-8.6 368.03-7.65L368.03-7.65 368.03-1.8Q368.03-0.85 368.45-0.43 368.88 0 369.83 0L369.83 0ZM378.58-31.5L389.68-31.5 389.68-31 378.58-31Q376.48-31 375.23-29.85 373.98-28.7 373.98-26.95L373.98-26.95 373.98-22.85Q373.98-21.1 374.68-20.4 375.38-19.7 376.53-19.5L376.53-19.5 387.08-17.35Q388.58-17.05 389.55-16.05 390.53-15.05 390.53-12.45L390.53-12.45 390.53-9.55Q390.53-7.35 389.03-5.93 387.53-4.5 384.98-4.5L384.98-4.5 372.53-4.5 372.53-5 384.98-5Q387.28-5 388.65-6.28 390.03-7.55 390.03-9.55L390.03-9.55 390.03-12.45Q390.03-14.8 389.2-15.68 388.38-16.55 386.98-16.85L386.98-16.85 376.43-19Q375.13-19.25 374.3-20.03 373.48-20.8 373.48-22.85L373.48-22.85 373.48-26.95Q373.48-28.95 374.88-30.23 376.28-31.5 378.58-31.5L378.58-31.5Z" opacity="1" transform="matrix(1,0,0,1,0,0)" fill="#ffffff" class="undefined-lv-1"></path></svg></g></svg></g></svg></g></svg></g></svg></g></svg></g><defs></defs></svg><rect width="395.52" height="44.637490896032" fill="none" stroke="none" visibility="hidden"></rect></g></svg></g></svg>